<?xml version="1.0" standalone="no"?>
<!DOCTYPE svg PUBLIC "-//W3C//DTD SVG 20010904//EN"
 "http://www.w3.org/TR/2001/REC-SVG-20010904/DTD/svg10.dtd">
<svg version="1.0" xmlns="http://www.w3.org/2000/svg"
 width="348.000000pt" height="348.000000pt" viewBox="0 0 348.000000 348.000000"
 preserveAspectRatio="xMidYMid meet">

<g transform="translate(0.000000,348.000000) scale(0.100000,-0.100000)"
fill="#000000" stroke="none">
<path d="M905 2724 c-59 -30 -93 -64 -119 -116 -23 -46 -26 -64 -26 -162 -1
-213 -30 -388 -84 -494 -32 -62 -103 -128 -155 -142 l-41 -11 0 -59 0 -59 41
-11 c52 -14 123 -80 155 -142 53 -104 84 -287 84 -495 0 -83 5 -117 19 -148
27 -59 66 -101 118 -126 l47 -23 777 -1 c551 -1 791 2 823 10 59 15 109 55
143 113 26 44 28 55 35 223 12 295 57 453 154 538 25 21 61 43 82 48 l37 9 3
61 3 61 -50 17 c-36 12 -63 30 -95 66 -85 95 -123 241 -134 523 -7 169 -8 174
-37 222 -17 27 -50 62 -74 79 l-43 30 -816 3 c-726 2 -820 0 -847 -14z m986
-458 c120 -28 198 -100 219 -202 23 -109 -28 -215 -126 -265 l-52 -26 55 -17
c106 -34 173 -121 180 -236 7 -89 -22 -163 -83 -220 -93 -85 -165 -100 -496
-100 l-238 0 0 540 0 540 243 0 c166 0 260 -4 298 -14z"/>
<path d="M1530 1979 l0 -161 138 4 c159 5 217 23 252 80 28 47 27 124 -3 169
-35 52 -94 68 -254 69 l-133 0 0 -161z"/>
<path d="M1530 1515 l0 -177 163 4 c179 5 211 13 262 67 25 28 30 41 33 99 4
82 -16 120 -80 154 -39 20 -60 23 -210 26 l-168 4 0 -177z"/>
</g>
</svg>
