<?xml version="1.0" standalone="no"?>
<!DOCTYPE svg PUBLIC "-//W3C//DTD SVG 20010904//EN"
 "http://www.w3.org/TR/2001/REC-SVG-20010904/DTD/svg10.dtd">
<svg version="1.0" xmlns="http://www.w3.org/2000/svg"
 width="316.000000pt" height="316.000000pt" viewBox="0 0 316.000000 316.000000"
 preserveAspectRatio="xMidYMid meet">

<g transform="translate(0.000000,316.000000) scale(0.100000,-0.100000)"
fill="#000000" stroke="none">
<path d="M2886 3087 c-22 -18 -58 -49 -80 -69 -23 -21 -46 -38 -53 -38 -6 0
-13 -4 -15 -8 -4 -12 -95 -72 -107 -72 -6 0 -11 -4 -11 -9 0 -5 -14 -14 -31
-21 -31 -13 -31 -13 -25 -74 3 -34 10 -92 15 -131 6 -38 14 -108 20 -155 16
-136 23 -170 35 -170 18 0 66 24 66 33 0 4 9 7 20 7 11 0 20 4 20 8 0 5 12 15
28 23 15 8 34 21 42 29 8 9 30 27 49 39 18 13 57 47 87 75 60 56 63 69 45 177
-5 30 -14 99 -21 154 -17 150 -31 235 -38 234 -4 0 -25 -14 -46 -32z"/>
<path d="M71 2924 c-19 -8 -31 -17 -28 -21 4 -3 -1 -12 -10 -18 -32 -24 -17
-110 27 -157 15 -17 18 -17 30 -3 7 8 20 15 30 15 14 0 19 -13 24 -67 9 -82
23 -286 36 -528 10 -183 23 -356 39 -545 5 -58 14 -181 20 -275 31 -481 39
-584 60 -790 23 -212 35 -357 35 -427 1 -43 2 -78 4 -78 15 0 30 32 27 56 -6
36 -35 494 -35 537 0 27 5 34 33 45 17 8 41 18 52 22 32 15 177 59 220 68 l40
8 -2 50 c0 27 -6 99 -13 159 -6 61 -14 154 -18 207 -8 106 -20 131 -52 110
-11 -6 -27 -12 -36 -12 -23 0 -148 -43 -152 -52 -2 -5 -12 -8 -23 -8 -10 0
-19 -4 -19 -10 0 -5 -9 -10 -20 -10 -11 0 -20 -4 -20 -10 0 -11 -50 -14 -51
-2 -1 11 -19 296 -25 404 -7 104 -6 107 46 137 65 39 168 84 239 107 l53 17
-6 116 c-3 64 -9 178 -12 254 -6 128 -8 137 -26 137 -26 0 -152 -42 -156 -52
-2 -5 -9 -8 -16 -8 -18 0 -66 -24 -66 -32 0 -5 -9 -8 -19 -8 -11 0 -21 -4 -23
-8 -1 -5 -15 -12 -29 -15 l-26 -7 -11 128 c-7 70 -14 180 -16 244 -4 112 -3
118 20 145 34 39 37 114 6 143 -31 29 -66 50 -82 50 -8 -1 -30 -7 -49 -16z
m64 -48 c41 -18 44 -28 10 -46 -14 -7 -25 -17 -25 -22 0 -13 -43 -9 -62 6 -25
19 -23 55 5 66 30 12 33 12 72 -4z"/>
<path d="M688 2905 c-3 -3 -32 -9 -64 -13 l-59 -7 0 -237 c0 -145 4 -241 10
-247 6 -6 48 -4 115 6 87 13 121 14 200 4 52 -6 108 -11 124 -11 l29 0 -6 193
c-4 105 -10 220 -13 255 l-7 62 -162 0 c-89 0 -164 -2 -167 -5z"/>
<path d="M1564 2818 c-3 -4 -2 -13 2 -20 4 -7 11 -84 16 -173 4 -88 11 -193
14 -234 l6 -73 -43 6 c-24 3 -73 10 -109 16 -101 17 -178 28 -270 40 -149 18
-135 21 -133 -30 12 -303 21 -458 27 -471 5 -12 25 -19 64 -23 76 -8 194 -26
360 -56 31 -6 76 -13 100 -16 l42 -6 0 -96 c0 -52 4 -123 10 -156 5 -34 11
-112 12 -174 l3 -114 -55 6 c-30 3 -82 9 -115 15 -33 6 -78 13 -100 16 -22 3
-62 10 -90 15 -27 5 -81 12 -119 14 l-68 5 6 -92 c4 -50 11 -135 16 -187 5
-52 12 -131 16 -176 l6 -81 111 -17 c62 -10 150 -24 197 -32 47 -9 110 -19
140 -24 30 -4 62 -10 70 -12 21 -4 25 96 11 222 -6 52 -12 144 -14 203 l-2
109 55 -6 c30 -3 87 -10 125 -15 39 -6 113 -15 165 -20 52 -5 119 -13 149 -17
l53 -7 -6 134 c-11 252 -17 364 -21 385 -5 23 -15 25 -180 44 -162 19 -313 42
-351 55 -27 8 -32 37 -45 245 -5 85 -12 185 -15 222 l-6 66 43 -4 c24 -3 55
-7 69 -10 40 -9 148 -23 250 -34 52 -5 115 -12 139 -16 l44 -7 -7 64 c-3 35
-11 105 -16 154 -39 347 -30 315 -95 315 -45 0 -161 14 -398 48 -32 5 -60 5
-63 0z"/>
<path d="M93 2520 c0 -41 2 -58 4 -37 2 20 2 54 0 75 -2 20 -4 3 -4 -38z"/>
<path d="M113 2235 c0 -38 2 -53 4 -32 2 20 2 52 0 70 -2 17 -4 1 -4 -38z"/>
<path d="M2565 2290 c-3 -5 -15 -10 -26 -10 -10 0 -19 -4 -19 -9 0 -15 -59
-23 -215 -30 l-150 -6 4 -104 c1 -57 7 -117 12 -135 5 -17 9 -68 9 -113 0 -45
5 -105 12 -133 l12 -52 58 6 c32 3 86 9 121 12 34 3 66 10 72 15 5 5 24 9 41
9 18 0 36 5 39 10 3 6 15 10 26 10 11 0 38 6 60 13 l41 12 -6 85 c-4 47 -11
128 -16 180 -6 52 -13 130 -16 173 -6 72 -8 77 -29 77 -13 0 -27 -4 -30 -10z"/>
<path d="M2985 2012 c-39 -37 -86 -78 -105 -92 -19 -13 -42 -31 -50 -40 -8 -8
-27 -21 -42 -29 -16 -8 -28 -18 -28 -23 0 -4 -9 -8 -20 -8 -11 0 -20 -4 -20
-9 0 -5 -9 -13 -21 -16 -20 -7 -21 -12 -15 -74 3 -36 10 -124 15 -196 10 -143
22 -245 28 -245 7 0 48 26 67 43 11 9 24 17 29 17 5 0 17 8 26 18 9 10 32 29
51 42 19 14 75 64 123 113 l88 89 -6 61 c-3 34 -10 107 -15 162 -5 55 -12 129
-15 165 -4 36 -9 71 -13 77 -5 8 -32 -12 -77 -55z"/>
<path d="M133 1945 c0 -44 2 -61 4 -37 2 23 2 59 0 80 -2 20 -4 1 -4 -43z"/>
<path d="M631 1847 l-33 -11 6 -90 c13 -186 25 -323 32 -374 l7 -54 36 7 c119
21 260 20 385 -1 l38 -6 -5 93 c-4 52 -10 166 -15 254 -6 88 -13 168 -17 178
-6 15 -25 17 -204 16 -109 -1 -211 -6 -230 -12z m174 -375 c3 -31 8 -67 11
-80 4 -19 1 -23 -13 -20 -15 3 -18 15 -19 85 -1 93 11 102 21 15z"/>
<path d="M153 1655 c0 -38 2 -53 4 -32 2 20 2 52 0 70 -2 17 -4 1 -4 -38z"/>
<path d="M173 1365 c0 -44 2 -61 4 -37 2 23 2 59 0 80 -2 20 -4 1 -4 -43z"/>
<path d="M2666 1235 c-83 -43 -172 -62 -336 -71 l-95 -6 3 -176 c2 -98 9 -217
15 -267 l12 -89 54 3 c30 1 86 9 125 18 39 8 83 17 99 20 15 3 27 9 27 14 0 5
8 9 18 9 25 0 134 57 145 75 4 8 5 20 1 26 -4 6 -10 108 -14 226 -4 118 -11
218 -16 223 -6 6 -21 4 -38 -5z"/>
<path d="M194 1075 c0 -49 1 -71 3 -48 2 23 2 64 0 90 -2 26 -3 8 -3 -42z"/>
<path d="M214 795 c0 -49 1 -71 3 -48 2 23 2 64 0 90 -2 26 -3 8 -3 -42z"/>
<path d="M234 510 c0 -52 1 -74 3 -47 2 26 2 68 0 95 -2 26 -3 4 -3 -48z"/>
<path d="M254 225 c0 -55 1 -76 3 -47 2 29 2 74 0 100 -2 26 -3 2 -3 -53z"/>
</g>
</svg>
