<?xml version="1.0" standalone="no"?>
<!DOCTYPE svg PUBLIC "-//W3C//DTD SVG 20010904//EN"
 "http://www.w3.org/TR/2001/REC-SVG-20010904/DTD/svg10.dtd">
<svg version="1.0" xmlns="http://www.w3.org/2000/svg"
 width="1206.000000pt" height="1464.000000pt" viewBox="0 0 1206.000000 1464.000000"
 preserveAspectRatio="xMidYMid meet">

<g transform="translate(0.000000,1464.000000) scale(0.100000,-0.100000)"
fill="#000000" stroke="none">
<path d="M6045 14609 c-44 -11 -118 -38 -164 -61 -70 -33 -101 -57 -181 -137
-53 -53 -117 -127 -142 -166 -25 -38 -390 -630 -810 -1315 -421 -685 -1386
-2255 -2145 -3490 -2170 -3529 -2483 -4040 -2513 -4100 -60 -118 -75 -191 -75
-355 0 -168 13 -232 69 -350 33 -70 412 -666 1681 -2640 368 -572 740 -1152
828 -1290 87 -137 188 -289 223 -337 135 -180 275 -278 480 -333 79 -22 252
-30 341 -16 64 10 1524 442 6408 1896 1093 325 1518 456 1566 481 220 116 382
346 428 608 18 98 13 243 -9 332 -12 47 -70 186 -144 344 -127 272 -2991 6381
-3558 7590 -66 140 -169 359 -228 485 -59 127 -180 383 -268 570 -87 187 -243
518 -345 735 -595 1268 -585 1247 -684 1342 -195 186 -501 270 -758 207z m612
-1809 l38 -12 239 -516 c372 -805 1078 -2315 1976 -4232 909 -1940 1379 -2947
1805 -3865 156 -335 300 -646 321 -690 49 -103 53 -188 12 -275 -26 -57 -84
-122 -130 -146 -39 -20 -1516 -462 -4773 -1429 -953 -283 -1761 -524 -1796
-536 -187 -63 -389 77 -377 259 4 55 945 4613 1917 9287 143 688 294 1417 336
1620 43 204 81 388 87 410 13 50 81 118 134 133 45 13 155 8 211 -8z"/>
</g>
</svg>
