<?xml version="1.0" encoding="UTF-8"?>
<svg version="1.1" xmlns="http://www.w3.org/2000/svg" width="1024" height="1024">
<path d="M0 0 C2.34574675 2.15073606 4.71947714 4.26600393 7.09863281 6.37963867 C12.44725421 11.19023891 17.55968744 16.20791737 22.63378906 21.30541992 C23.48392578 22.15168945 24.3340625 22.99795898 25.20996094 23.86987305 C28.85448546 27.52002618 32.44511315 31.1724564 35.80175781 35.09057617 C40.2719156 40.28611718 45.10637445 45.12583705 49.94140625 49.97827148 C51.55454497 51.6010755 53.15663818 53.23427714 54.75878906 54.86791992 C82.59884427 82.99331214 120.33196607 98.53096883 159.91113281 99.24975586 C195.93756922 99.15261216 227.73658804 83.52333352 254.44628906 60.24291992 C255.02169434 59.74195801 255.59709961 59.24099609 256.18994141 58.72485352 C262.39594404 53.27537147 268.2286017 47.65293037 273.44628906 41.24291992 C273.95933594 40.61562988 274.47238281 39.98833984 275.00097656 39.34204102 C278.8326582 34.6556815 282.64586672 29.95465491 286.44628906 25.24291992 C287.8189645 29.36094623 286.61123252 32.50069109 285.50878906 36.55541992 C285.2798999 37.39862793 285.05101074 38.24183594 284.81518555 39.1105957 C268.36778707 97.9153082 230.9062539 155.87683141 177.08984375 186.58764648 C117.80877673 219.74563024 42.06581115 224.08759661 -22.69433594 206.00073242 C-52.69978945 197.21790724 -80.9903774 184.26551234 -106.55371094 166.24291992 C-107.59011719 165.51459961 -108.62652344 164.7862793 -109.69433594 164.03588867 C-114.80403022 160.32400343 -119.6427249 156.38809011 -124.27636719 152.09838867 C-124.82608688 151.58999954 -125.37580658 151.08161041 -125.94218445 150.55781555 C-134.13605776 142.90781235 -141.97487285 134.88946023 -149.86621094 126.93041992 C-153.02598352 123.74383986 -156.18921553 120.56075046 -159.35449219 117.37963867 C-160.41256828 116.30911507 -160.41256828 116.30911507 -161.49201965 115.21696472 C-165.45671845 111.23295508 -169.51983144 107.43362307 -173.786026 103.77345276 C-175.97104846 101.88157228 -178.06764442 99.90684081 -180.16625977 97.92041016 C-211.45509699 68.38920253 -251.15386562 44.09663469 -295.36230469 44.99291992 C-334.51473169 46.45628853 -367.7945486 65.85160037 -395.55371094 92.24291992 C-396.23691406 92.86166992 -396.92011719 93.48041992 -397.62402344 94.11791992 C-404.36805122 100.43868237 -409.66493819 108.06514544 -415.14672852 115.46875 C-416.51480924 117.19386585 -417.96563978 118.7205661 -419.55371094 120.24291992 C-415.68642763 76.63596677 -392.05466252 32.83575716 -362.55371094 1.24291992 C-360.36111863 -1.24729231 -358.17066623 -3.73923845 -355.98730469 -6.23754883 C-343.7637215 -18.89278343 -328.8671871 -29.22394479 -313.55371094 -37.75708008 C-312.90499023 -38.12784668 -312.25626953 -38.49861328 -311.58789062 -38.88061523 C-281.23790369 -56.17819157 -246.21247253 -64.98437915 -211.55371094 -67.75708008 C-210.2453125 -67.86793945 -208.93691406 -67.97879883 -207.58886719 -68.09301758 C-130.70521165 -73.93501263 -57.14399252 -52.6423983 0 0 Z " fill="#06B6D5" transform="translate(694.5537109375,299.757080078125)"/>
<path d="M0 0 C78.13957998 -2.07883077 144.74834627 26.22905418 200.96533203 79.41064453 C204.94766903 83.21191945 208.87868817 87.06324425 212.78173828 90.94580078 C213.38042725 91.53981689 213.97911621 92.13383301 214.59594727 92.74584961 C217.46739636 95.6277243 220.22612115 98.5546738 222.86767578 101.64892578 C227.83116771 107.38251938 233.20726039 112.7195464 238.55859375 118.08789062 C240.38899829 119.92796705 242.2084056 121.7784714 244.02783203 123.62939453 C253.94846685 133.64190728 264.23022902 142.85228753 276.90673828 149.25830078 C278.10024902 149.8724585 278.10024902 149.8724585 279.31787109 150.49902344 C314.26841803 168.02918587 353.31917428 173.2690156 390.78173828 161.07080078 C410.46966806 154.2335344 428.32692277 143.35779526 443.55908203 129.14111328 C445.56300562 127.27454122 447.61926743 125.51464004 449.71923828 123.75830078 C459.66973498 115.04662094 467.77942688 104.5341712 475.78173828 94.07080078 C477.1544678 98.18898933 475.94635886 101.32838302 474.84423828 105.38330078 C474.61679932 106.2236084 474.38936035 107.06391602 474.1550293 107.9296875 C457.95645808 165.96255094 420.83242799 224.73593197 367.51220703 255.02001953 C366.27082314 255.70742974 365.02731248 256.39101283 363.78173828 257.07080078 C362.84128662 257.58634521 362.84128662 257.58634521 361.88183594 258.11230469 C304.27118476 289.26386461 228.39198748 292.75483656 166.21923828 274.69580078 C162.38987849 273.53649631 158.58153284 272.32341987 154.78173828 271.07080078 C153.95947754 270.80041992 153.1372168 270.53003906 152.29003906 270.25146484 C108.9933849 255.73335836 74.73354497 231.49238029 42.96923828 199.32080078 C40.35908148 196.68283777 37.74737941 194.04645058 35.13264465 191.4130249 C33.51917291 189.78748722 31.90837767 188.15928657 30.30082703 186.52789307 C26.18976525 182.38046262 21.99893236 178.40722665 17.55877686 174.61288452 C15.75952362 173.05152328 14.03292379 171.43376341 12.31689453 169.78173828 C3.32271326 161.1243407 -6.14752358 153.43956819 -16.21826172 146.07080078 C-17.13220703 145.39404297 -18.04615234 144.71728516 -18.98779297 144.02001953 C-49.80952075 121.78543979 -84.69028292 109.61657618 -122.81738281 115.66040039 C-162.52267727 122.57354789 -199.20232507 147.48696721 -222.65576172 180.07080078 C-223.25259766 180.93705078 -223.84943359 181.80330078 -224.46435547 182.69580078 C-226.21030872 185.06003146 -228.08978274 187.04991524 -230.21826172 189.07080078 C-229.61228573 181.73772423 -228.08588708 174.91376079 -226.15576172 167.82080078 C-225.84630615 166.68199463 -225.53685059 165.54318848 -225.21801758 164.36987305 C-215.55104705 129.73170832 -198.82609885 99.08668658 -175.21826172 72.07080078 C-174.49509766 71.22388672 -173.77193359 70.37697266 -173.02685547 69.50439453 C-168.75044984 64.55849291 -164.22085868 60.26789485 -159.21826172 56.07080078 C-158.27208984 55.23677734 -157.32591797 54.40275391 -156.35107422 53.54345703 C-113.24607606 15.74586267 -56.11726085 1.79110782 0 0 Z " fill="#06B6D5" transform="translate(271.21826171875,511.92919921875)"/>
</svg>
